<?xml version="1.0" encoding="UTF-8"?>
<svg width="45px" height="42px" viewBox="0 0 45 42" version="1.1" xmlns="http://www.w3.org/2000/svg" xmlns:xlink="http://www.w3.org/1999/xlink">
    <title>0F09FC8E-EDD9-4BAD-B161-EEEE69949268</title>
    <g id="Page-2" stroke="none" stroke-width="1" fill="none" fill-rule="evenodd">
        <g id="Home+3" transform="translate(-728.000000, -456.000000)" fill="currentcolor" fill-rule="nonzero">
            <g id="Group-13" transform="translate(-200.000000, 153.000000)">
                <g id="Group-10" transform="translate(670.000000, 0.000000)">
                    <g id="Group-3" transform="translate(78.000000, 294.000000)">
                        <g id="+-Submit-Recipe-Copy-2" transform="translate(179.999853, 0.000000)">
                            <g id="icon-cooking-time" transform="translate(0.000000, 9.000000)">
                                <path d="M22.7413858,10.2605679 C23.9693478,9.98917863 25.18875,10.7667053 25.4599728,11.9929649 L25.4599728,11.9929649 L25.6377717,12.7973618 L37.0548097,10.2776672 C37.4473369,10.1914382 37.8357065,10.4386443 37.9225271,10.8307053 C38.0091032,11.2227664 37.7611141,11.6104305 37.3688315,11.6971481 L37.3688315,11.6971481 L12.0436141,17.2861557 L29.5679347,17.2861557 C29.9091032,15.522003 31.4660054,14.185087 33.3305706,14.185087 C35.1951358,14.185087 36.752038,15.522003 37.0932065,17.2861557 L37.0932065,17.2861557 L39.5405706,17.2861557 C39.9423913,17.2861557 40.2681521,17.6115298 40.2681521,18.0131176 C40.2681521,18.4147053 39.9423913,18.7400794 39.5405706,18.7400794 L39.5405706,18.7400794 L38.6919293,18.7400794 L38.6369021,20.387713 L42.6455706,20.387713 C43.9028804,20.387713 44.9256521,21.4092702 44.9256521,22.665087 C44.9256521,23.9211481 43.9028804,24.9427053 42.6455706,24.9427053 L42.6455706,24.9427053 L38.4847826,24.9427053 L38.0391847,38.2994076 C37.9699728,40.3745221 36.2873641,41.9999267 34.2085597,41.9999267 L34.2085597,41.9999267 L10.7173369,41.9999267 C8.63853261,41.9999267 6.95592391,40.3745221 6.88695652,38.2994076 L6.88695652,38.2994076 L6.44111413,24.9427053 L2.28032609,24.9427053 C1.02301631,24.9427053 -1.42108547e-14,23.9211481 -1.42108547e-14,22.665087 C-1.42108547e-14,21.4092702 1.02301631,20.387713 2.28032609,20.387713 L2.28032609,20.387713 L6.28899457,20.387713 L6.23396739,18.7400794 L5.37627717,18.7403237 L5.37627717,18.7403237 L5.35817935,18.7386137 C5.33372283,18.7378809 5.30951087,18.7359267 5.28578804,18.7325069 C4.989375,18.6948885 4.73453804,18.4779725 4.66654891,18.169942 C4.57972826,17.7778809 4.82747283,17.3902168 5.22,17.3034992 L5.22,17.3034992 L16.637038,14.7838046 L16.4589945,13.9794076 C16.1877717,12.7529038 16.9659782,11.5349496 18.1936956,11.2640488 L18.1936956,11.2640488 Z M36.4729891,38.8986137 L8.45290761,38.8986137 C8.7588587,39.8605679 9.65445652,40.5462473 10.7173369,40.5462473 L10.7173369,40.5462473 L34.2085597,40.5462473 C35.2716847,40.5462473 36.167038,39.8605679 36.4729891,38.8986137 L36.4729891,38.8986137 Z M37.235788,18.7400794 L7.69035326,18.7400794 L8.31472826,37.4449344 L36.611413,37.4449344 L37.235788,18.7400794 Z M42.6455706,21.8413924 L38.5884782,21.8413924 L38.533451,23.489026 L42.6455706,23.489026 C43.1002174,23.489026 43.4702445,23.1194382 43.4702445,22.665087 C43.4702445,22.2109802 43.1002174,21.8413924 42.6455706,21.8413924 L42.6455706,21.8413924 Z M6.33766304,21.8413924 L2.28032609,21.8413924 C1.82567935,21.8413924 1.45565217,22.2109802 1.45565217,22.665087 C1.45565217,23.1194382 1.82567935,23.489026 2.28032609,23.489026 L2.28032609,23.489026 L6.39269022,23.489026 L6.33766304,21.8413924 Z M33.3305706,15.6387664 C32.2735597,15.6387664 31.3757608,16.3315298 31.0676087,17.2861557 L31.0676087,17.2861557 L35.593288,17.2861557 C35.2851358,16.3315298 34.3875815,15.6387664 33.3305706,15.6387664 Z M40.5000126,12 C41.8787867,12 43.0001467,13.12136 43.0001467,14.5001341 C43.0001467,15.87864 41.8787867,17 40.5000126,17 C39.1215067,17 38.0001467,15.87864 38.0001467,14.5001341 C38.0001467,13.12136 39.1215067,12 40.5000126,12 Z M40.5000126,13.595699 C40.001541,13.595699 39.5958457,14.0013943 39.5958457,14.5001341 C39.5958457,14.9986057 40.001541,15.404301 40.5000126,15.404301 C40.9987524,15.404301 41.4044477,14.9986057 41.4044477,14.5001341 C41.4044477,14.0013943 40.9987524,13.595699 40.5000126,13.595699 Z M24.0385597,12.3066137 C23.9407337,11.863255 23.499538,11.5820947 23.055163,11.6800488 L23.055163,11.6800488 L18.5074728,12.683774 C18.0635869,12.7817282 17.7820924,13.2224 17.880163,13.6657588 L17.880163,13.6657588 L18.0582065,14.4701557 L24.2166032,13.1110107 Z M30.5001467,7 C31.3272006,7 32.0001467,7.67288742 32.0001467,8.50013081 C32.0001467,9.32711258 31.3272006,10 30.5001467,10 C29.6730928,10 29.0001467,9.32711258 29.0001467,8.50013081 C29.0001467,7.67288742 29.6730928,7 30.5001467,7 Z M36.5000126,4 C37.8787867,4 39.0001467,5.12136 39.0001467,6.50013407 C39.0001467,7.87864 37.8787867,9 36.5000126,9 C35.1215067,9 34.0001467,7.87864 34.0001467,6.50013407 C34.0001467,5.12136 35.1215067,4 36.5000126,4 Z M36.5000126,5.59569904 C36.001541,5.59569904 35.5958457,6.00139433 35.5958457,6.50013407 C35.5958457,6.99860567 36.001541,7.40430096 36.5000126,7.40430096 C36.9987524,7.40430096 37.4044477,6.99860567 37.4044477,6.50013407 C37.4044477,6.00139433 36.9987524,5.59569904 36.5000126,5.59569904 Z M33.0002563,0 C33.5517083,0 34.0001467,0.448438356 34.0001467,0.999890411 C34.0001467,1.55134247 33.5517083,2 33.0002563,2 C32.4485851,2 32.0001467,1.55134247 32.0001467,0.999890411 C32.0001467,0.448438356 32.4485851,0 33.0002563,0 Z" id="Combined-Shape"></path>
                            </g>
                        </g>
                    </g>
                </g>
            </g>
        </g>
    </g>
</svg>
