<svg width="46" height="46" viewBox="0 0 46 46" fill="none" xmlns="http://www.w3.org/2000/svg">
<path d="M43.4099 27.9952C42.2429 29.9952 41.1369 32.0352 39.6649 33.8412C38.7619 34.9682 37.7169 35.9312 36.5189 36.7342C36.3769 36.8352 36.1639 36.8662 35.9809 36.8662H17.8729C15.0409 36.8662 12.1989 36.8762 9.36787 36.8562C9.12387 36.8562 8.84987 36.7542 8.64687 36.6322C6.31187 35.0692 4.74887 32.8362 3.33787 30.4822C2.83087 29.6392 2.35387 28.7762 1.81587 27.8522H43.4309C43.4209 27.9132 43.4309 27.9642 43.4109 27.9952H43.4099ZM10.5649 23.9152C11.2549 21.6412 12.7069 19.8952 14.5339 18.4542C15.9649 17.2972 17.5689 16.4742 19.3749 16.0792C20.4819 15.8452 21.5779 15.8152 22.7149 16.0792C17.4469 18.0582 13.3049 21.3572 10.1589 26.0362C10.2909 25.3262 10.3519 24.5942 10.5649 23.9142V23.9152ZM23.9529 17.6722C20.3899 20.5342 16.8279 23.3662 13.2849 26.2392C12.7579 26.6652 12.2299 26.4212 11.6719 26.5232C13.5489 22.5852 21.1619 17.0832 24.2979 17.3572C24.1359 17.5002 24.0439 17.6012 23.9529 17.6722ZM25.0899 18.4742C25.1399 18.5042 25.1909 18.5342 25.2319 18.5752C25.0899 18.9312 24.9679 19.3062 24.7959 19.6412C23.9939 21.1942 22.8559 22.5032 21.5779 23.6712C20.5729 24.5942 19.4769 25.4272 18.4009 26.2792C18.2289 26.4212 17.9539 26.4922 17.7209 26.5032C16.8789 26.5132 16.0459 26.5132 15.2039 26.5132C15.1939 26.4832 15.1839 26.4422 15.1739 26.4112L25.0899 18.4742V18.4742ZM28.0739 14.2622C28.3989 14.6582 28.6939 15.0222 29.0179 15.4192C28.2469 16.0382 27.4649 16.6672 26.6429 17.3172C26.3279 16.9312 26.0329 16.5562 25.7089 16.1602C26.5009 15.5202 27.2919 14.8912 28.0739 14.2622ZM26.0439 20.9402C25.9319 22.1992 25.5159 23.3562 24.8559 24.4122C24.3999 25.1322 23.8519 25.7822 23.3339 26.4722C22.6339 26.4822 21.9339 26.5022 21.2229 26.5122H20.3599C22.6129 24.6762 24.5929 22.7782 26.0539 20.3322C26.0539 20.5342 26.0639 20.7372 26.0439 20.9402V20.9402ZM44.9339 26.5942C44.7499 26.5132 44.5369 26.5132 44.3339 26.5132H25.1099C25.4859 25.9032 25.8409 25.3962 26.1349 24.8482C27.1709 22.9702 27.6979 20.9912 27.2109 18.8192C27.1909 18.7072 27.2819 18.5042 27.3739 18.4332C28.1959 17.7532 29.0379 17.1132 29.8709 16.4432C30.2659 16.1292 30.6209 15.8152 31.1799 15.8252C31.4129 15.8352 31.6869 15.7132 31.8799 15.5812C32.4079 15.2262 32.9159 14.8412 33.4129 14.4442C33.8489 14.1092 33.9099 13.7542 33.6669 13.4192C33.4029 13.0842 33.0169 13.0742 32.5809 13.4092C32.1639 13.7342 31.7789 14.0892 31.3419 14.3432C30.4389 14.9012 29.3119 14.2522 29.2719 13.1962C29.2419 12.6072 29.5459 12.2222 29.9719 11.8862C31.6569 10.5462 33.3319 9.18619 35.0169 7.85719C35.9399 7.10619 36.8539 6.35519 37.7869 5.64419C38.4469 5.13719 39.2589 5.25919 39.7569 5.87819C40.2239 6.47719 40.1319 7.29819 39.5439 7.83719C39.3909 7.95919 39.2389 8.07019 39.0969 8.20219C37.6249 9.38019 36.1529 10.5572 34.6819 11.7442C34.2349 12.1202 34.1639 12.4852 34.4379 12.8102C34.7019 13.1152 35.0979 13.1152 35.5039 12.8002C37.0969 11.5112 38.7009 10.2222 40.2939 8.93319C40.7619 8.55719 41.1069 8.09019 41.2789 7.49219C41.5939 6.35519 41.1569 5.15719 40.1929 4.49719C39.1479 3.77719 37.9089 3.83719 36.8329 4.69019C34.2349 6.76019 31.6469 8.84219 29.0589 10.9222C28.5709 11.3182 28.1959 11.7952 28.0229 12.4252C27.9729 12.5772 27.8509 12.7292 27.7189 12.8412C26.7549 13.6322 25.7799 14.4242 24.7959 15.1952C24.6939 15.2772 24.4809 15.3172 24.3789 15.2672C22.2169 14.2312 20.0249 14.4042 17.8329 15.1452C15.6099 15.9062 13.7119 17.1852 12.1079 18.8702C10.6159 20.4332 9.47887 22.2202 9.06287 24.3712C8.94087 25.0612 8.92087 25.7612 8.84987 26.5132H0.861874C0.0698745 26.5132 -0.224125 27.0102 0.181874 27.7102C0.942874 29.0202 1.70387 30.3302 2.48587 31.6282C3.41987 33.1812 4.43487 34.6632 5.74387 35.9222C6.47387 36.6422 7.28687 37.2822 8.09887 37.9822L7.98687 38.2162C7.24687 39.7992 7.94687 42.1032 10.3419 42.0832C11.0219 42.0832 11.7019 42.0932 12.3819 42.0832C12.9299 42.0832 13.2449 41.8092 13.2349 41.3932C13.2249 40.9872 12.9199 40.7532 12.3919 40.7532C11.6919 40.7432 10.9819 40.7532 10.2709 40.7532C9.48887 40.7432 9.05287 40.2862 9.04287 39.4952C9.03287 38.6832 9.47887 38.2052 10.2709 38.2052C18.5229 38.1952 26.7749 38.1952 35.0269 38.2052C35.2499 38.2052 35.5039 38.2662 35.6969 38.3682C36.2039 38.6422 36.3869 39.2512 36.2139 39.9312C36.0819 40.4492 35.6459 40.7532 35.0059 40.7532H21.7609C19.5279 40.7532 17.3049 40.7432 15.0709 40.7532C14.6049 40.7532 14.3309 40.9972 14.3209 41.3832C14.3009 41.7882 14.5849 42.0532 15.0609 42.0832H28.0839C30.4189 42.0832 32.7539 42.0932 35.0779 42.0832C36.4479 42.0732 37.3919 41.2102 37.5739 39.8702C37.6659 39.1802 37.5239 38.5302 37.1789 37.9312C37.4829 37.7082 37.7369 37.5152 38.0009 37.3222C39.7769 35.9522 41.1779 34.2472 42.3549 32.3592C43.3189 30.7862 44.2529 29.1922 45.1769 27.6092C45.4199 27.1932 45.3189 26.7562 44.9329 26.5942H44.9339Z" fill="black"/>
</svg>
