<?xml version="1.0" encoding="UTF-8"?>
<svg width="40px" height="37px" viewBox="0 0 40 37" version="1.1" xmlns="http://www.w3.org/2000/svg" xmlns:xlink="http://www.w3.org/1999/xlink">
    <title>AA5DDF76-8A09-4740-BFE4-C99BD1A64D68</title>
    <g id="Page-2" stroke="none" stroke-width="1" fill="none" fill-rule="evenodd">
        <g id="Home+3" transform="translate(-910.000000, -458.000000)" fill="currentcolor" fill-rule="nonzero">
            <g id="Group-13" transform="translate(-200.000000, 153.000000)">
                <g id="Group-10" transform="translate(670.000000, 0.000000)">
                    <g id="Group-3" transform="translate(78.000000, 294.000000)">
                        <g id="+-Submit-Recipe-Copy-3" transform="translate(362.000000, 0.000000)">
                            <g id="icon-meal-size-quantity" transform="translate(0.000000, 11.000000)">
                                <g id="dinner" transform="translate(0.000000, -0.000000)">
                                    <path d="M19.9999609,11 C22.6619089,11 24.8275296,13.1488398 24.8275296,15.7894696 L24.8275296,15.7894696 C31.7240787,17.8077079 36.9257091,24.0575111 37.2237554,31.5263647 L37.2237554,31.5263647 L37.2473491,31.5263647 C38.7650805,31.5263647 40,32.753786 40,34.2631824 C40,35.7725788 38.7651587,37 37.2474273,37 L37.2474273,37 L2.75257275,37 C1.23484134,37 0,35.7725788 0,34.2631824 C0,32.753786 1.23484134,31.5263647 2.75257275,31.5263647 L2.75257275,31.5263647 L2.77616645,31.5263647 C3.07421275,24.0574336 8.22037457,17.8077079 15.1730172,15.7924924 C15.1730172,15.7913298 15.1723922,15.7904772 15.1723922,15.7894696 C15.1723922,13.1488398 17.338013,11 19.9999609,11 Z M37.2473491,32.8947736 L2.75257275,32.8947736 C1.99523048,32.8947736 1.37929418,33.5087942 1.37929418,34.2631824 C1.37929418,35.0175705 1.99523048,35.6315912 2.75257275,35.6315912 L2.75257275,35.6315912 L37.2473491,35.6315912 C38.0046914,35.6315912 38.6206277,35.0175705 38.6206277,34.2631824 C38.6206277,33.5087942 38.0046914,32.8947736 37.2473491,32.8947736 L37.2473491,32.8947736 Z M19.9999609,16.4737128 C11.4846651,16.4737128 4.51506931,23.1654683 4.15280439,31.5263647 L4.15280439,31.5263647 L6.24186281,31.5263647 C6.60389335,24.6770349 12.3179447,19.2105304 19.3103529,19.2105304 C19.6912115,19.2105304 20.0000391,19.5165331 20.0000391,19.8947736 C20.0000391,20.273014 19.6912115,20.5790167 19.3103529,20.5790167 C13.0782557,20.5790167 7.98123441,25.4315781 7.62115699,31.5263647 L7.62115699,31.5263647 L35.8471956,31.5263647 C35.4848526,23.1654683 28.5152568,16.4737128 19.9999609,16.4737128 Z M19.9999609,12.3684088 C18.2181675,12.3684088 16.764811,13.721316 16.5869989,15.4431626 C17.6906686,15.2224965 18.831682,15.1052264 19.9999609,15.1052264 C21.1681618,15.1052264 22.3092533,15.2224965 23.412923,15.4431626 C23.2351109,13.721316 21.7817543,12.3684088 19.9999609,12.3684088 Z M28.9179363,5.10819275 C29.2915708,4.91106148 29.7977823,4.99080243 30.0480722,5.28646292 C30.1268244,5.3800402 31.9574211,7.59734824 30.0480722,9.85674786 C28.8032701,11.3295158 30.741701,12.8870494 30.7611814,12.9027792 C31.0796062,13.1538721 31.0796062,13.5606602 30.7611814,13.8116803 C30.6020151,13.9372268 30.3935479,14 30.1849884,14 C29.9765212,14 29.7679617,13.9372268 29.6087954,13.8116803 C28.5996037,13.0156545 27.1093126,11.0155768 28.6919275,9.14352154 C30.0051416,7.58977467 28.7050375,6.01527332 28.6919275,5.99961642 C28.4423762,5.70395593 28.5434708,5.30532402 28.9179363,5.10819275 Z M9.91795744,4.10778978 C10.2924315,3.91123219 10.7981931,3.99097674 11.0481194,4.28606803 C11.1268735,4.37964954 12.9575125,6.59705808 11.0481194,8.85656009 C9.80328861,10.3293948 11.7417643,11.886999 11.7612451,11.9027294 C12.079585,12.1539066 12.079585,12.5607131 11.7612451,12.8116718 C11.6020751,12.9372239 11.3935108,13 11.1850388,13 C10.9765668,13 10.7680025,12.9372239 10.6088325,12.8116718 C9.59961755,12.0156099 8.10929203,10.0154415 9.69194351,8.14330144 C11.0051879,6.58948416 9.70505379,5.01491145 9.69194351,4.99925385 C9.44238646,4.70357995 9.54348338,4.30492998 9.91795744,4.10778978 Z M19.9179363,0.108192753 C20.2919401,-0.0889385159 20.7977823,-0.00919757037 21.0480722,0.286462922 C21.1268244,0.380040196 22.9574211,2.59734824 21.0480722,4.85674786 C19.8032701,6.32951579 21.741701,7.88704943 21.7611814,7.90277915 C22.0796062,8.1538721 22.0796062,8.56066016 21.7611814,8.81168029 C21.6020151,8.93722676 21.3934556,9 21.1849884,9 C20.9765212,9 20.7679617,8.93722676 20.6087954,8.81168029 C19.5996037,8.01565446 18.1093126,6.01557678 19.6919275,4.14352154 C21.0051416,2.58977467 19.7050375,1.01527332 19.6919275,0.999616419 C19.4423762,0.703955927 19.5434708,0.305324022 19.9179363,0.108192753 Z" id="Combined-Shape"></path>
                                </g>
                            </g>
                        </g>
                    </g>
                </g>
            </g>
        </g>
    </g>
</svg>
